<?xml version="1.0" encoding="UTF-8"?>
<svg version="1.1" xmlns="http://www.w3.org/2000/svg" width="512" height="512">
<path d="M0 0 C0.9269165 0.44400146 0.9269165 0.44400146 1.87255859 0.89697266 C17.40378682 8.45237435 31.22126395 18.47927089 43.52978516 30.56494141 C44.94142302 31.94282374 46.38231394 33.29054206 47.82421875 34.63671875 C79.04036175 64.42787377 95.7010569 108.31404226 97 151 C97.83496715 200.90979941 79.39854543 245.04917364 45 281 C42.44099687 283.47802202 39.75900286 285.74813257 37 288 C36.03964844 288.80953125 35.07929688 289.6190625 34.08984375 290.453125 C-2.08892572 320.37991581 -48.1735012 333.28339722 -94.67529297 329.58642578 C-131.39742207 325.9536449 -167.16716371 310.37716705 -194 285 C-195.34989846 283.84914139 -196.70390621 282.70308069 -198.0625 281.5625 C-228.86981463 254.51367775 -246.66262076 212.02090295 -250.75 171.875 C-250.86379968 169.91820069 -250.9435998 167.95929398 -251 166 C-251.02046387 165.32855957 -251.04092773 164.65711914 -251.06201172 163.96533203 C-252.08009323 125.32030411 -241.99425289 78.58608911 -214.62109375 49.31640625 C-212.17972324 47.33389574 -210.09413114 47.06726372 -207 47 C-203.14107452 46.80705373 -201.33772355 45.69366984 -198.6875 43 C-196.26837864 40.02496944 -195.70540613 38.24770771 -195.9375 34.4375 C-196.04964844 33.73496094 -196.16179687 33.03242187 -196.27734375 32.30859375 C-195.71772788 27.65038274 -191.64944025 24.5742518 -188.30078125 21.61328125 C-133.82677203 -20.32814546 -62.45733541 -30.12912325 0 0 Z " fill="#010201" transform="translate(333,17)"/>
<path d="M0 0 C6.64359268 0.70967592 12.27592598 2.8885544 18.37890625 5.48828125 C21.80722935 6.99823811 21.80722935 6.99823811 24.71484375 7.79296875 C27.12101885 8.58052335 28.37474844 9.0438589 30 11 C30.64491642 14.49708201 30.75462063 17.84840761 30.828125 21.40234375 C31.31850182 31.66682209 37.3108233 38.65656993 44 46 C44.90363281 46.81597656 45.80726563 47.63195312 46.73828125 48.47265625 C49.36476809 51.40760787 49.64336321 52.75408468 49.75 56.625 C49.87040896 59.76423368 49.99933989 61.99801968 51 65 C51.97867811 68.63213636 52.09555986 71.37433554 51 75 C47.79938493 79.09346754 43.53307843 82.27472472 39.58105469 85.60986328 C31.67192834 92.56393454 25.11420911 103.48767926 24 114 C22.68074749 133.72233944 22.68074749 133.72233944 29 152 C29.83724609 153.43472656 29.83724609 153.43472656 30.69140625 154.8984375 C40.15444502 169.32018761 55.47984202 176.32853271 71.5390625 181.04296875 C74.20398001 182.07932556 75.46006146 182.58674061 77 185 C77.77847129 191.00534995 76.02965606 195.13219706 73.4375 200.375 C73.04618896 201.18662598 72.65487793 201.99825195 72.25170898 202.83447266 C68.18743524 211.03066836 63.38986517 218.7655037 58.61035156 226.55761719 C54.43669627 233.42504292 50.62968916 240.36268627 47.1875 247.625 C46.5843396 248.8941626 46.5843396 248.8941626 45.96899414 250.18896484 C42.57320708 257.54637938 40.66776755 264.07486554 40.8125 272.1875 C40.81314453 272.88552734 40.81378906 273.58355469 40.81445312 274.30273438 C40.84327743 277.66877323 40.96067294 280.78224341 42 284 C23.02555214 296.50883977 2.25961816 303.73636115 -20 308 C-21.35992065 308.26695679 -21.35992065 308.26695679 -22.74731445 308.53930664 C-26.52311153 309.07409078 -30.23436655 309.1620788 -34.0390625 309.16796875 C-34.80117035 309.17129715 -35.5632782 309.17462555 -36.34848022 309.17805481 C-37.95708619 309.18309782 -39.56570254 309.18546395 -41.17431641 309.18530273 C-43.59686237 309.18747477 -46.01894152 309.20561836 -48.44140625 309.22460938 C-66.04898492 309.28995662 -66.04898492 309.28995662 -74 307 C-74.66 306.34 -75.32 305.68 -76 305 C-64.93333892 294.18642265 -53.23577906 284.87242718 -38 281 C-20.40909333 276.41903472 -3.9000495 271.42323134 6.21484375 255.03125 C7.25552588 253.05199041 8.1520551 251.06882852 9 249 C9.2990625 248.28972656 9.598125 247.57945312 9.90625 246.84765625 C12.3678811 240.36308174 13.37501438 234.08226492 11.12109375 227.390625 C4.40889229 212.76998816 -9.7158515 206.32652962 -24.09765625 200.9921875 C-25.81785054 200.40412646 -27.55233865 199.85233586 -29.30859375 199.3828125 C-39.66759487 196.43463674 -44.93372035 184.13875092 -50.50244141 175.6875 C-59.94450615 161.44251806 -71.28228571 146.69544931 -88.69140625 142.32421875 C-92.43650649 141.95722546 -96.03679618 142.07638674 -99.79223633 142.21850586 C-109.67612658 142.53938433 -116.96131322 142.35812509 -125 136 C-125.78117187 135.43539062 -126.56234375 134.87078125 -127.3671875 134.2890625 C-129.64503638 132.59409751 -131.82723002 130.82719231 -134 129 C-134.73605469 128.38640625 -135.47210938 127.7728125 -136.23046875 127.140625 C-142.6688026 121.65220926 -142.6688026 121.65220926 -145 118 C-145.42424242 111.84848485 -145.42424242 111.84848485 -144 109 C-143.26508696 100.92800432 -144.11481664 94.26891263 -147.125 86.75390625 C-148.11138777 83.64942689 -148.27330857 81.23937866 -148 78 C-145.90741149 74.82503812 -144.17308714 73.11539143 -141 71 C-138.36988756 71.16438203 -137.32108252 71.65428417 -135.5234375 73.58984375 C-133.21482774 77.24218279 -132.22303767 81.29593553 -131.0703125 85.42382812 C-129.63354444 90.13586023 -127.7410837 92.82304797 -124 96 C-120.89046621 97.5547669 -118.43733239 97.28644437 -115 97 C-104.98287487 92.093653 -101.2977838 81.64960492 -97.52148438 71.86523438 C-94.15915767 63.54149973 -89.62699026 56.16784553 -82 51.125 C-81.21625 50.59132812 -80.4325 50.05765625 -79.625 49.5078125 C-73.1465956 45.78658616 -66.75159607 44.06945482 -59.5 42.5 C-58.52893311 42.28351807 -57.55786621 42.06703613 -56.55737305 41.84399414 C-50.9911327 40.61344576 -45.41454684 39.49112238 -39.8125 38.4375 C-26.28144953 35.71642062 -16.90902156 31.2227981 -8.6875 19.6875 C-4.89131664 13.57262509 -2.27008892 6.81026675 0 0 Z " fill="#68E5EC" transform="translate(300,22)"/>
<path d="M0 0 C5.25440222 4.99168211 8.60516182 8.94058625 8.8515625 16.44921875 C8.7787021 24.26525931 6.72308789 31.3867251 4.55712891 38.8371582 C3.88048876 41.16858795 3.22944707 43.50601019 2.58203125 45.84570312 C-1.81240907 61.47889131 -7.91146428 76.01821803 -15.5 90.375 C-16.04793213 91.41503174 -16.04793213 91.41503174 -16.60693359 92.47607422 C-22.34096074 103.2638202 -28.56242027 112.8957577 -37.5 121.375 C-37.97655029 121.87217529 -38.45310059 122.36935059 -38.9440918 122.8815918 C-43.51556977 127.62834285 -48.45407686 131.5918092 -53.75 135.5 C-54.62116455 136.14815674 -55.4923291 136.79631348 -56.38989258 137.46411133 C-64.51179974 143.46528608 -72.83485235 149.1524238 -81.19628906 154.81201172 C-95.49152668 164.47481478 -95.49152668 164.47481478 -108.6171875 175.6328125 C-112.65637283 179.37031593 -115.11457061 179.57822375 -120.5 179.375 C-120.63277344 180.14585937 -120.76554687 180.91671875 -120.90234375 181.7109375 C-121.16724609 183.21527344 -121.16724609 183.21527344 -121.4375 184.75 C-121.61152344 185.74773437 -121.78554688 186.74546875 -121.96484375 187.7734375 C-122.5 190.375 -122.5 190.375 -123.5 192.375 C-122.62988281 192.57802734 -122.62988281 192.57802734 -121.7421875 192.78515625 C-115.54250532 194.49364952 -111.97362618 196.91644457 -108.5 202.375 C-107.27629408 206.04611777 -107.29940037 209.47097053 -107.26171875 213.296875 C-107.253647 214.07508606 -107.24557526 214.85329712 -107.23725891 215.65509033 C-107.22343525 217.30258976 -107.21270541 218.95011763 -107.20483398 220.59765625 C-107.19332652 222.2754765 -107.17289408 223.95326049 -107.14331055 225.63085938 C-107.10045439 228.06144973 -107.08443968 230.49095283 -107.07421875 232.921875 C-107.05671066 233.66379089 -107.03920258 234.40570679 -107.02116394 235.17010498 C-107.04381285 240.6708675 -108.38948937 243.82615851 -111.5 248.375 C-115.43988246 252.02659838 -118.4248132 253.49197865 -123.76863098 253.52217102 C-125.07441856 253.53290398 -125.07441856 253.53290398 -126.40658569 253.54385376 C-127.3588504 253.54654266 -128.31111511 253.54923157 -129.29223633 253.55200195 C-130.29740799 253.55857315 -131.30257965 253.56514435 -132.33821106 253.57191467 C-135.66948519 253.59164926 -139.00071426 253.60331 -142.33203125 253.61328125 C-143.46917761 253.61735678 -144.60632397 253.6214323 -145.77792931 253.62563133 C-151.79539178 253.64649166 -157.81283145 253.66079418 -163.83032227 253.67016602 C-170.04800927 253.68123693 -176.26533904 253.71564517 -182.48289967 253.75533772 C-187.26214773 253.78146943 -192.04131017 253.78985476 -196.8206234 253.79344749 C-199.11275333 253.79832148 -201.40487923 253.80995843 -203.69693947 253.82848549 C-206.90477543 253.85280537 -210.11168035 253.85192476 -213.31958008 253.8449707 C-214.7388681 253.86418579 -214.7388681 253.86418579 -216.18682861 253.88378906 C-221.8059652 253.83939891 -225.0552692 253.15083506 -229.5 249.375 C-234.23083384 244.13272467 -234.67298485 240.04999972 -234.73828125 233.19921875 C-234.746353 232.39643997 -234.75442474 231.59366119 -234.76274109 230.76655579 C-234.7765645 229.06778105 -234.78729445 227.36897875 -234.79516602 225.67016602 C-234.81236835 223.08230492 -234.85626692 220.49572541 -234.90039062 217.90820312 C-234.91051922 216.2552177 -234.91903481 214.60222144 -234.92578125 212.94921875 C-234.94328934 212.18026779 -234.96079742 211.41131683 -234.97883606 210.61906433 C-234.95351 204.29413258 -232.65666799 200.96300159 -228.625 196.125 C-224.12083124 192.41568455 -220.27531926 192.375 -214.5 192.375 C-214.17 187.755 -213.84 183.135 -213.5 178.375 C-215.15 177.715 -216.8 177.055 -218.5 176.375 C-222.58954242 168.19591515 -218.85161861 155.66551513 -216.20214844 147.32519531 C-207.56030438 123.32274387 -186.94854182 114.67748715 -165.5 104.375 C-163.25607115 103.28345464 -161.01257118 102.1910271 -158.76953125 101.09765625 C-156.68023433 100.08480872 -154.59041346 99.07304108 -152.5 98.0625 C-151.52119873 97.58828613 -150.54239746 97.11407227 -149.53393555 96.62548828 C-148.63586182 96.19606934 -147.73778809 95.76665039 -146.8125 95.32421875 C-146.02488281 94.94612061 -145.23726563 94.56802246 -144.42578125 94.1784668 C-142.5 93.375 -142.5 93.375 -140.5 93.375 C-140.23662842 92.78493164 -139.97325684 92.19486328 -139.7019043 91.58691406 C-138.44798348 89.27927185 -137.14804739 87.80772606 -135.26953125 85.984375 C-134.63499023 85.36143555 -134.00044922 84.73849609 -133.34667969 84.09667969 C-132.67540039 83.44602539 -132.00412109 82.79537109 -131.3125 82.125 C-126.77070194 77.66007299 -122.34606366 73.20405225 -118.23828125 68.33203125 C-115.46378461 65.20838447 -112.46405575 62.30709269 -109.47998047 59.38549805 C-106.91359559 56.85590245 -104.57272151 54.29025271 -102.375 51.4375 C-98.65405 47.0022129 -93.84827114 44.86854751 -88.16796875 44.03125 C-82.13965674 43.78477728 -77.28343687 45.01106278 -72.58203125 49.00390625 C-67.72582934 53.96023603 -66.18616349 58.54137175 -65.5 65.375 C-50.89180943 52.78738158 -41.63215415 39.21039586 -33.95703125 21.6015625 C-33.52640381 20.62034424 -33.09577637 19.63912598 -32.65209961 18.62817383 C-31.82079165 16.71398832 -31.00681804 14.79215017 -30.21313477 12.86206055 C-27.68411162 6.99760498 -24.96923949 2.84154456 -19.5 -0.625 C-13.28539389 -2.69653537 -5.9411618 -2.75839655 0 0 Z " fill="#F9D4C0" transform="translate(499.5,258.625)"/>
<path d="M0 0 C10.41585237 5.74388752 14.55141435 20.46014161 19.07421875 30.68945312 C25.54950521 45.06492632 34.38487301 56.2039052 46.57421875 66.234375 C46.63738281 65.6053125 46.70054688 64.97625 46.765625 64.328125 C47.7808857 57.23198702 50.09037481 52.8917333 55.57421875 48.234375 C60.86257798 45.10053249 65.58318851 44.44124191 71.57421875 45.234375 C78.82009538 47.40444321 83.25334855 51.38194924 88.13671875 56.984375 C89.43916007 58.4279357 90.74253518 59.87065448 92.046875 61.3125 C92.65805176 61.99634766 93.26922852 62.68019531 93.89892578 63.38476562 C95.88557899 65.57813268 97.95520652 67.66906094 100.07421875 69.734375 C102.487193 72.1059248 104.74650914 74.54123891 106.94921875 77.109375 C111.22308125 82.08241777 115.90382425 86.63746573 120.57421875 91.234375 C121.24056839 91.96965424 121.24056839 91.96965424 121.92037964 92.7197876 C123.89943341 94.53220689 125.8472113 95.51279071 128.27001953 96.66699219 C129.22176056 97.1246698 130.17350159 97.58234741 131.15408325 98.05389404 C132.18218109 98.54142151 133.21027893 99.02894897 134.26953125 99.53125 C136.45193528 100.58310024 138.63422323 101.63519134 140.81640625 102.6875 C144.25075078 104.33465355 147.68666032 105.97838934 151.125 107.6171875 C154.44857579 109.20422369 157.76552468 110.80450479 161.08203125 112.40625 C162.0979837 112.88568054 163.11393616 113.36511108 164.16067505 113.85906982 C170.61380013 116.98563815 176.11203855 120.59239772 181.57421875 125.234375 C182.2100589 125.77261902 182.84589905 126.31086304 183.50100708 126.86541748 C194.3430734 136.35361619 199.79296914 151.4425372 200.8046875 165.41796875 C200.85238281 166.57425781 200.90007812 167.73054687 200.94921875 168.921875 C200.99820313 170.01886719 201.0471875 171.11585938 201.09765625 172.24609375 C200.57421875 175.234375 200.57421875 175.234375 198.0703125 177.17578125 C195.20130054 179.07026284 195.20130054 179.07026284 195.0859375 182.6875 C195.14394531 183.94046875 195.20195312 185.1934375 195.26171875 186.484375 C195.30683594 187.74765625 195.35195312 189.0109375 195.3984375 190.3125 C195.48544922 191.75882812 195.48544922 191.75882812 195.57421875 193.234375 C196.15429688 193.26015625 196.734375 193.2859375 197.33203125 193.3125 C204.19859995 193.81106274 208.22744954 195.57047481 212.88671875 200.859375 C215.84875396 205.0281653 215.75022236 208.33360427 215.77734375 213.3125 C215.78304382 214.11669373 215.7887439 214.92088745 215.7946167 215.74945068 C215.80407176 217.45421024 215.81060269 219.15898811 215.81445312 220.86376953 C215.824129 223.46029044 215.85513438 226.0560097 215.88671875 228.65234375 C215.89325194 230.30989114 215.89850117 231.96744419 215.90234375 233.625 C215.92086395 234.78313202 215.92086395 234.78313202 215.9397583 235.96466064 C215.91729394 241.45787472 214.92739471 245.71354274 211.0390625 249.87890625 C207.24109925 252.78323109 205.17690535 254.35615468 200.42584229 254.37481689 C199.1221167 254.38338211 199.1221167 254.38338211 197.79205322 254.39212036 C196.83619324 254.39323822 195.88033325 254.39435608 194.89550781 254.39550781 C193.89048218 254.40047272 192.88545654 254.40543762 191.84997559 254.41055298 C188.51325809 254.42520025 185.17658816 254.43198142 181.83984375 254.4375 C179.52537026 254.44325002 177.21089679 254.44900777 174.89642334 254.45477295 C170.03739194 254.46529071 165.17837712 254.47112808 160.31933594 254.47460938 C154.09383847 254.480091 147.86856006 254.50410885 141.64313126 254.53258133 C136.8595923 254.55120953 132.07610604 254.55641345 127.29253387 254.55794525 C124.99762527 254.56097267 122.70271761 254.56900416 120.40784454 254.58213043 C117.19522992 254.59919183 113.98314941 254.59731005 110.77050781 254.59082031 C109.82274475 254.6000351 108.87498169 254.60924988 107.89849854 254.6187439 C101.97575371 254.58127961 97.49081986 253.89464774 92.9296875 249.734375 C88.86094742 244.50896968 88.40741522 240.71412019 88.37109375 234.27734375 C88.36539368 233.49676102 88.3596936 232.71617828 88.3538208 231.91194153 C88.34437925 230.26023714 88.33784017 228.60851398 88.33398438 226.95678711 C88.32429457 224.44155613 88.29327074 221.92714809 88.26171875 219.41210938 C88.25518661 217.80469233 88.24993697 216.19726947 88.24609375 214.58984375 C88.23374695 213.84276657 88.22140015 213.09568939 88.2086792 212.32597351 C88.23579672 205.90498946 89.80500865 202.0035851 94.32421875 197.484375 C97.88812428 195.01705579 100.39529984 194.15373716 104.57421875 193.234375 C104.35765625 192.54730469 104.14109375 191.86023438 103.91796875 191.15234375 C103.5003125 189.80076172 103.5003125 189.80076172 103.07421875 188.421875 C102.79578125 187.52855469 102.51734375 186.63523437 102.23046875 185.71484375 C101.57421875 183.234375 101.57421875 183.234375 101.57421875 180.234375 C100.08921875 180.4509375 100.08921875 180.4509375 98.57421875 180.671875 C94.03040885 180.64472076 92.05415437 178.40802144 88.87890625 175.39453125 C80.66847665 167.698993 71.19125 161.58885711 61.82421875 155.421875 C51.7224207 148.76853538 42.04115367 141.75806875 32.57421875 134.234375 C31.5790625 133.45191406 30.58390625 132.66945313 29.55859375 131.86328125 C27.90670903 130.55512703 26.26242599 129.23726609 24.62890625 127.90625 C23.36005931 126.8738042 22.07615054 125.85920674 20.76953125 124.875 C9.18206422 115.79726085 2.24996019 102.01055461 -4.42578125 89.234375 C-4.79477539 88.53876465 -5.16376953 87.8431543 -5.54394531 87.12646484 C-13.07111858 72.89444322 -18.48463295 58.15091424 -22.72363281 42.64233398 C-23.30496903 40.53167036 -23.91186589 38.42938545 -24.51953125 36.32617188 C-27.09660883 27.1387665 -29.995634 16.76944246 -25.80078125 7.734375 C-18.35905946 -0.09901636 -10.97170051 -3.46288776 0 0 Z " fill="#F9D5C1" transform="translate(31.42578125,257.765625)"/>
<path d="M0 0 C-1.1081073 10.33874872 -4.80659503 18.15715629 -13 25 C-19.33872004 28.64024338 -25.78172716 29.8980158 -32.9375 30.9375 C-52.50754512 34.09958908 -72.37885731 38.27249504 -86 54 C-91.34097086 61.76868488 -95.18314088 70.23315714 -98.74291992 78.93383789 C-100.79875621 83.8993781 -100.79875621 83.8993781 -103 85 C-103.1959375 84.23816406 -103.391875 83.47632812 -103.59375 82.69140625 C-105.82294026 74.99493472 -108.75555299 69.18626325 -115 64 C-119.96873044 61.55118213 -124.55726641 61.11454036 -130 62 C-137.62669782 65.08340094 -143.53015174 71.66662676 -147 79 C-148.4576683 86.950105 -147.24621784 93.51615999 -143.8984375 100.7578125 C-142.09404664 105.26094446 -142.41323354 109.37776331 -144.0625 113.9375 C-145.754357 119.46423286 -144.78146568 124.20914114 -142.5 129.4375 C-133.00656478 144.09995867 -117.52623326 155.49125558 -101 161 C-99.34278067 161.03616842 -97.68395978 161.01454111 -96.02734375 160.95703125 C-94.55297852 160.92512695 -94.55297852 160.92512695 -93.04882812 160.89257812 C-91.00159597 160.83988728 -88.95463314 160.77511177 -86.90820312 160.69726562 C-76.02665072 160.5063612 -68.4061801 163.7026059 -60.5625 171.203125 C-52.66277085 179.82539035 -46.3042389 189.86332389 -39.79125977 199.54516602 C-32.63908802 210.11220386 -26.38864474 215.5998344 -14.25 219.375 C-4.17698215 222.71184224 6.13706469 226.6193035 12 236 C13.78443168 241.45826161 12.68360397 245.3743681 10.41015625 250.4453125 C4.28649752 261.539143 -5.65565852 266.60069671 -17.40625 270.3046875 C-20.14506504 271.03888792 -22.90350994 271.65156658 -25.66992188 272.27172852 C-45.70339063 276.87801552 -64.54764775 290.67097205 -77 307 C-86.36320984 304.83925927 -94.54651892 300.41552796 -103 296 C-102.20250607 290.46124079 -99.82183334 285.59305465 -97.61523438 280.50195312 C-93.5450498 270.90733199 -90.85774277 261.23181112 -94.5 251.0625 C-100.24529962 238.41499742 -110.0713156 229.86112187 -120.22583008 220.74829102 C-125.24816237 215.79921691 -127.07446757 210.88354278 -127.4375 203.875 C-127.31657612 196.47848918 -124.16495726 190.47368122 -121 183.93359375 C-119.05503706 179.75379359 -118.42558935 176.59528521 -119 172 C-121.70295769 166.21738881 -124.47820577 163.45204772 -129.875 160.1875 C-131.22263682 159.33013781 -132.56896088 158.47070918 -133.9140625 157.609375 C-134.59500977 157.17818359 -135.27595703 156.74699219 -135.97753906 156.30273438 C-151.60767503 146.2348438 -166.99518267 134.30836304 -179.375 120.375 C-180.22191406 119.42753906 -180.22191406 119.42753906 -181.0859375 118.4609375 C-183.49852971 111.96549693 -178.89443916 103.51206614 -176.4375 97.4375 C-176.08816406 96.5719751 -175.73882812 95.7064502 -175.37890625 94.81469727 C-170.93766814 84.09646992 -165.53048719 74.17756888 -158.5 64.9375 C-155.37670996 60.78763056 -153.79072232 58.23194201 -154 53 C-154.66 51.35 -155.32 49.7 -156 48 C-151.545 43.05 -151.545 43.05 -147 38 C-146.01 38.33 -145.02 38.66 -144 39 C-140.6899879 39.66200242 -139.18279423 39.87037577 -136 39 C-133.48321455 37.2249651 -131.19733654 35.29696919 -128.89208984 33.25830078 C-94.20206348 2.58199647 -44.85089652 -7.19670546 0 0 Z " fill="#8ECF42" transform="translate(285,17)"/>
<path d="M0 0 C5.25440222 4.99168211 8.60516182 8.94058625 8.8515625 16.44921875 C8.7787021 24.26525931 6.72308789 31.3867251 4.55712891 38.8371582 C3.88048876 41.16858795 3.22944707 43.50601019 2.58203125 45.84570312 C-1.81240907 61.47889131 -7.91146428 76.01821803 -15.5 90.375 C-16.04793213 91.41503174 -16.04793213 91.41503174 -16.60693359 92.47607422 C-22.34096074 103.2638202 -28.56242027 112.8957577 -37.5 121.375 C-37.97655029 121.87217529 -38.45310059 122.36935059 -38.9440918 122.8815918 C-43.51556977 127.62834285 -48.45407686 131.5918092 -53.75 135.5 C-54.62116455 136.14815674 -55.4923291 136.79631348 -56.38989258 137.46411133 C-64.51179974 143.46528608 -72.83485235 149.1524238 -81.19628906 154.81201172 C-95.49152668 164.47481478 -95.49152668 164.47481478 -108.6171875 175.6328125 C-111.19745384 178.02036185 -112.90860396 179.29950263 -116.4375 179.75 C-119.5 179.375 -119.5 179.375 -121.875 177.875 C-123.67293699 175.10894309 -124.45511776 172.95844294 -124.234375 169.62890625 C-119.93843037 156.44401235 -97.50875276 145.63396044 -86.60546875 138.4453125 C-74.03699799 130.06633199 -62.0130418 121.15693918 -50.5 111.375 C-49.71109375 110.72660156 -48.9221875 110.07820313 -48.109375 109.41015625 C-31.36987968 94.40585252 -20.37918015 66.53007614 -14.5 45.375 C-14.20722168 44.36131348 -13.91444336 43.34762695 -13.61279297 42.30322266 C-12.59997567 38.79002825 -11.608731 35.27144392 -10.625 31.75 C-10.30168701 30.60990479 -9.97837402 29.46980957 -9.64526367 28.29516602 C-9.35240479 27.21549561 -9.0595459 26.1358252 -8.7578125 25.0234375 C-8.4911377 24.05583496 -8.22446289 23.08823242 -7.94970703 22.09130859 C-7.47016536 19.19479358 -7.74118651 17.19061426 -8.5 14.375 C-9.82 14.375 -11.14 14.375 -12.5 14.375 C-12.94279297 15.34735596 -13.38558594 16.31971191 -13.84179688 17.3215332 C-15.51439358 20.98578628 -17.20315759 24.64240562 -18.89648438 28.29711914 C-19.62215347 29.86902757 -20.34363394 31.44287765 -21.06054688 33.01879883 C-25.39095891 42.52937554 -29.8298091 51.23267359 -36.5 59.375 C-37.21712158 60.25925659 -37.21712158 60.25925659 -37.94873047 61.16137695 C-47.61568614 72.67149884 -59.14007316 81.83849548 -71.69921875 89.98828125 C-72.6109082 90.57996094 -72.6109082 90.57996094 -73.54101562 91.18359375 C-75.5 92.375 -75.5 92.375 -77.61523438 93.42578125 C-88.09330004 98.89717286 -95.77244632 108.53307465 -103.77392578 117.03271484 C-105.85514592 119.23476468 -107.96060151 121.41121939 -110.0703125 123.5859375 C-110.69761261 124.26707611 -111.32491272 124.94821472 -111.97122192 125.6499939 C-115.10101309 128.84938092 -117.20374628 130.79086347 -121.80419922 130.93212891 C-125.5 130.375 -125.5 130.375 -128.0625 128.25 C-129.91497388 124.54505224 -129.73612892 123.32154545 -128.5 119.375 C-126.43242604 116.69240013 -124.00519255 114.44199344 -121.53515625 112.1328125 C-120.07997483 110.72146066 -118.62490035 109.30999855 -117.16992188 107.8984375 C-114.884165 105.71115223 -112.59340826 103.52933168 -110.29858398 101.3515625 C-101.29184573 92.76828931 -93.55621821 84.52093129 -87.38061523 73.66357422 C-85.5 70.375 -85.5 70.375 -83.72290039 68.09814453 C-82.19326757 66.34873519 -82.19326757 66.34873519 -82.8125 63.625 C-83.1528125 62.51125 -83.1528125 62.51125 -83.5 61.375 C-85.22476911 60.41997842 -85.22476911 60.41997842 -87.5 60.375 C-89.2435324 61.9968906 -90.86501653 63.64851524 -92.5 65.375 C-93.67082214 66.54144272 -94.84555036 67.70397327 -96.0234375 68.86328125 C-104.65589114 77.39376934 -104.65589114 77.39376934 -112.76171875 86.41796875 C-115.9163142 89.969547 -119.35713558 93.24851559 -122.75390625 96.56640625 C-125.34255485 99.08459273 -125.34255485 99.08459273 -126.67774963 100.97164917 C-131.03069422 106.78961251 -136.4781942 109.30666458 -142.9609375 112.31640625 C-144.06547272 112.8471727 -145.17000793 113.37793915 -146.30801392 113.92478943 C-149.82303662 115.61153434 -153.34800039 117.27596307 -156.875 118.9375 C-160.3934387 120.6053094 -163.90932746 122.27799784 -167.42056274 123.96092224 C-169.59980541 125.00442655 -171.78334876 126.03901288 -173.97177124 127.06312561 C-187.45833227 133.4955796 -196.31477226 141.10083694 -201.5 155.375 C-202.61419827 159.57711918 -203.26356489 163.82380894 -203.91796875 168.1171875 C-204.06878906 169.00664062 -204.21960938 169.89609375 -204.375 170.8125 C-204.49617188 171.61558594 -204.61734375 172.41867187 -204.7421875 173.24609375 C-205.73233346 176.02768937 -206.98247879 176.89793036 -209.5 178.375 C-212.5 178.8125 -212.5 178.8125 -215.5 178.375 C-218.19734807 176.28846444 -219.35932291 175.08252301 -220.03125 171.703125 C-219.86712742 155.53705057 -215.31979608 142.50726846 -206.3125 129.125 C-194.58052422 117.6537348 -180.12693357 111.40082937 -165.5 104.375 C-163.25607115 103.28345464 -161.01257118 102.1910271 -158.76953125 101.09765625 C-156.68023433 100.08480872 -154.59041346 99.07304108 -152.5 98.0625 C-151.52119873 97.58828613 -150.54239746 97.11407227 -149.53393555 96.62548828 C-148.63586182 96.19606934 -147.73778809 95.76665039 -146.8125 95.32421875 C-146.02488281 94.94612061 -145.23726563 94.56802246 -144.42578125 94.1784668 C-142.5 93.375 -142.5 93.375 -140.5 93.375 C-140.23662842 92.78493164 -139.97325684 92.19486328 -139.7019043 91.58691406 C-138.44798348 89.27927185 -137.14804739 87.80772606 -135.26953125 85.984375 C-134.63499023 85.36143555 -134.00044922 84.73849609 -133.34667969 84.09667969 C-132.67540039 83.44602539 -132.00412109 82.79537109 -131.3125 82.125 C-126.77070194 77.66007299 -122.34606366 73.20405225 -118.23828125 68.33203125 C-115.46378461 65.20838447 -112.46405575 62.30709269 -109.47998047 59.38549805 C-106.91359559 56.85590245 -104.57272151 54.29025271 -102.375 51.4375 C-98.65405 47.0022129 -93.84827114 44.86854751 -88.16796875 44.03125 C-82.13965674 43.78477728 -77.28343687 45.01106278 -72.58203125 49.00390625 C-67.72582934 53.96023603 -66.18616349 58.54137175 -65.5 65.375 C-50.89180943 52.78738158 -41.63215415 39.21039586 -33.95703125 21.6015625 C-33.52640381 20.62034424 -33.09577637 19.63912598 -32.65209961 18.62817383 C-31.82079165 16.71398832 -31.00681804 14.79215017 -30.21313477 12.86206055 C-27.68411162 6.99760498 -24.96923949 2.84154456 -19.5 -0.625 C-13.28539389 -2.69653537 -5.9411618 -2.75839655 0 0 Z " fill="#010101" transform="translate(499.5,258.625)"/>
<path d="M0 0 C10.41585237 5.74388752 14.55141435 20.46014161 19.07421875 30.68945312 C25.54950521 45.06492632 34.38487301 56.2039052 46.57421875 66.234375 C46.63738281 65.6053125 46.70054688 64.97625 46.765625 64.328125 C47.7808857 57.23198702 50.09037481 52.8917333 55.57421875 48.234375 C60.86257798 45.10053249 65.58318851 44.44124191 71.57421875 45.234375 C78.82009538 47.40444321 83.25334855 51.38194924 88.13671875 56.984375 C89.43916007 58.4279357 90.74253518 59.87065448 92.046875 61.3125 C92.65805176 61.99634766 93.26922852 62.68019531 93.89892578 63.38476562 C95.88557899 65.57813268 97.95520652 67.66906094 100.07421875 69.734375 C102.487193 72.1059248 104.74650914 74.54123891 106.94921875 77.109375 C111.22308125 82.08241777 115.90382425 86.63746573 120.57421875 91.234375 C121.24056839 91.96965424 121.24056839 91.96965424 121.92037964 92.7197876 C123.89943341 94.53220689 125.8472113 95.51279071 128.27001953 96.66699219 C129.22176056 97.1246698 130.17350159 97.58234741 131.15408325 98.05389404 C132.18218109 98.54142151 133.21027893 99.02894897 134.26953125 99.53125 C136.45193528 100.58310024 138.63422323 101.63519134 140.81640625 102.6875 C144.25075078 104.33465355 147.68666032 105.97838934 151.125 107.6171875 C154.44857579 109.20422369 157.76552468 110.80450479 161.08203125 112.40625 C162.0979837 112.88568054 163.11393616 113.36511108 164.16067505 113.85906982 C170.61380013 116.98563815 176.11203855 120.59239772 181.57421875 125.234375 C182.2100589 125.77261902 182.84589905 126.31086304 183.50100708 126.86541748 C194.3430734 136.35361619 199.79296914 151.4425372 200.8046875 165.41796875 C200.85238281 166.57425781 200.90007812 167.73054687 200.94921875 168.921875 C200.99820313 170.01886719 201.0471875 171.11585938 201.09765625 172.24609375 C200.57421875 175.234375 200.57421875 175.234375 198.3125 177.6640625 C195.57421875 179.234375 195.57421875 179.234375 193.40625 179.29296875 C192.40658203 178.98552734 192.40658203 178.98552734 191.38671875 178.671875 C190.37544922 178.39150391 190.37544922 178.39150391 189.34375 178.10546875 C187.57421875 177.234375 187.57421875 177.234375 185.57421875 174.234375 C185.24015045 171.93016031 184.97941498 169.61498097 184.76171875 167.296875 C183.25627846 154.171913 177.84304983 143.32372817 167.70263672 134.79589844 C163.63399248 131.81091925 159.10855183 129.72783052 154.57421875 127.546875 C153.53201172 127.03503662 152.48980469 126.52319824 151.41601562 125.99584961 C146.01843228 123.35426323 140.59652403 120.76472668 135.16796875 118.1875 C134.14445313 117.70112061 133.1209375 117.21474121 132.06640625 116.71362305 C130.12648933 115.79510658 128.18392382 114.88215514 126.23828125 113.97583008 C117.15838383 109.70153417 110.20010932 105.40369777 103.51171875 97.859375 C102.35546148 96.57955817 101.1979111 95.3009084 100.0390625 94.0234375 C99.47268066 93.39630859 98.90629883 92.76917969 98.32275391 92.12304688 C95.98231814 89.59503639 93.53881419 87.17980077 91.09008789 84.75732422 C89.40985607 83.06924464 87.850411 81.31245143 86.32421875 79.484375 C81.7011595 74.1153221 76.61668415 69.20457577 71.57421875 64.234375 C71.01605469 63.6259375 70.45789063 63.0175 69.8828125 62.390625 C69.23505859 61.81828125 69.23505859 61.81828125 68.57421875 61.234375 C66.41122664 61.46195231 66.41122664 61.46195231 64.57421875 62.234375 C63.63822877 64.37477426 63.63822877 64.37477426 63.57421875 67.234375 C64.99496977 69.87206869 66.40234042 72.13435719 68.13671875 74.546875 C68.56791016 75.17271484 68.99910156 75.79855469 69.44335938 76.44335938 C70.79638629 78.39195797 72.18321986 80.31271661 73.57421875 82.234375 C74.0153299 82.85437881 74.45644104 83.47438263 74.91091919 84.11317444 C78.45772228 88.9931243 82.33755698 93.19909799 86.6875 97.3671875 C88.0310094 98.68056985 89.37409631 99.99438452 90.71679688 101.30859375 C92.80982814 103.34565634 94.90658306 105.37849277 97.01098633 107.40380859 C99.06016899 109.38047696 101.09338113 111.37249343 103.125 113.3671875 C103.75722977 113.96733673 104.38945953 114.56748596 105.04084778 115.18582153 C107.83792084 117.95000895 109.39912355 119.66134399 110.56713867 123.48388672 C110.57421875 126.234375 110.57421875 126.234375 109.13671875 129.109375 C106.25147794 131.50201372 104.45635951 131.86068078 100.73925781 131.74557495 C96.39326594 130.71941756 93.83104156 127.3088498 90.91796875 124.11328125 C90.21256958 123.37996078 89.50717041 122.64664032 88.78039551 121.89109802 C86.52482898 119.5446379 84.29703185 117.17435845 82.07421875 114.796875 C72.82057511 104.90932196 64.37997094 96.07630878 52.11206055 90.05566406 C21.70984363 74.40453314 6.76493119 45.01007139 -6.42578125 15.234375 C-8.07578125 15.564375 -9.72578125 15.894375 -11.42578125 16.234375 C-8.92171657 37.53365454 -1.5527829 59.42245493 8.54199219 78.29199219 C9.57894514 80.24326885 10.58331114 82.20860647 11.58203125 84.1796875 C26.22039581 112.80000381 51.2874485 128.22894724 77.09619141 145.96777344 C85.75603841 151.93110912 94.033052 157.86530957 101.57421875 165.234375 C102.14527344 165.729375 102.71632812 166.224375 103.3046875 166.734375 C105.24260596 169.0241002 105.04424914 171.40387484 104.921875 174.29296875 C104.57421875 176.234375 104.57421875 176.234375 102.94921875 178.734375 C99.69255303 180.79121651 98.37818344 181.03905984 94.57421875 180.234375 C92.52551741 178.76699853 90.75358902 177.11758868 88.9140625 175.39453125 C80.63031719 167.74693332 71.21273769 161.60300399 61.82421875 155.421875 C51.7224207 148.76853538 42.04115367 141.75806875 32.57421875 134.234375 C31.5790625 133.45191406 30.58390625 132.66945313 29.55859375 131.86328125 C27.90670903 130.55512703 26.26242599 129.23726609 24.62890625 127.90625 C23.36005931 126.8738042 22.07615054 125.85920674 20.76953125 124.875 C9.18206422 115.79726085 2.24996019 102.01055461 -4.42578125 89.234375 C-4.79477539 88.53876465 -5.16376953 87.8431543 -5.54394531 87.12646484 C-13.07111858 72.89444322 -18.48463295 58.15091424 -22.72363281 42.64233398 C-23.30496903 40.53167036 -23.91186589 38.42938545 -24.51953125 36.32617188 C-27.09660883 27.1387665 -29.995634 16.76944246 -25.80078125 7.734375 C-18.35905946 -0.09901636 -10.97170051 -3.46288776 0 0 Z " fill="#010101" transform="translate(31.42578125,257.765625)"/>
<path d="M0 0 C4.63561664 1.47890008 7.90300151 4.15165395 11.5 7.3125 C12.11020996 7.84520508 12.72041992 8.37791016 13.34912109 8.92675781 C35.29401436 28.29622512 50.84770593 50.45595234 61 78 C61.38800781 79.03769531 61.77601563 80.07539062 62.17578125 81.14453125 C71.04399024 107.26979557 71.51614607 136.13616948 66 163 C65.79503906 164.05058594 65.59007812 165.10117188 65.37890625 166.18359375 C58.95883622 194.93434212 44.52828502 220.10010004 24 241 C23.05283177 241.98514508 22.10620406 242.97081016 21.16015625 243.95703125 C14.01071232 251.29544726 14.01071232 251.29544726 10 253 C9.27396114 235.53685488 21.84443122 218.77658634 30.625 204.375 C43.17884808 184.54469553 43.17884808 184.54469553 46 162 C44.13806436 155.76029902 40.31136683 151.61389405 35 148 C31.80874817 146.56808493 28.53444515 145.56604773 25.1875 144.5625 C17.51277568 142.06443334 11.12874674 139.41129424 5 134 C4.02546875 133.18595703 4.02546875 133.18595703 3.03125 132.35546875 C-3.26565593 126.65890343 -7.16013873 119.63283578 -7.62890625 111.08984375 C-7.63283266 109.0389468 -7.61042331 106.98784072 -7.5625 104.9375 C-7.57893555 103.40125977 -7.57893555 103.40125977 -7.59570312 101.83398438 C-7.49042753 90.85023043 -3.37187193 82.98090782 4 75 C6.7579567 72.40278579 9.57338945 69.86807335 12.46850586 67.42456055 C17.28089938 63.22365104 19.70409786 59.09288191 20.328125 52.5703125 C20.30234375 51.43335938 20.2765625 50.29640625 20.25 49.125 C20.22421875 47.91070312 20.1984375 46.69640625 20.171875 45.4453125 C19.99462582 41.89227205 19.69855517 38.40020073 19.19921875 34.87890625 C19 33 19 33 19.3125 29.9375 C18.49872522 22.2880171 10.30382626 15.98496084 5.26953125 10.7109375 C2.65055748 7.58259362 0 4.22752906 0 0 Z " fill="#79B52D" transform="translate(345,43)"/>
<path d="M0 0 C0.9536293 -0.00671722 1.90725861 -0.01343445 2.88978577 -0.02035522 C6.03285983 -0.03930644 9.17572006 -0.04325788 12.31884766 -0.04541016 C14.51071255 -0.05183969 16.70257659 -0.05856816 18.8944397 -0.06558228 C23.48579905 -0.07754757 28.07708319 -0.08126382 32.66845703 -0.08007812 C38.541751 -0.07987489 44.41456134 -0.10718519 50.28774071 -0.14162254 C54.81401775 -0.16389615 59.34017844 -0.16791553 63.86650467 -0.16685867 C66.03137505 -0.16921361 68.19624869 -0.17803105 70.36106491 -0.19352341 C73.3933952 -0.21319376 76.42468295 -0.20734101 79.45703125 -0.1953125 C80.34456589 -0.20655151 81.23210052 -0.21779053 82.14653015 -0.22937012 C88.62102283 -0.16434848 94.11188056 1.21051664 98.92055321 5.77324867 C103.23897386 10.73532771 103.53404573 14.90260392 103.59619141 21.21240234 C103.60426315 21.9906134 103.6123349 22.76882446 103.62065125 23.57061768 C103.6344749 25.21811711 103.64520474 26.86564497 103.65307617 28.51318359 C103.66458363 30.19100384 103.68501607 31.86878783 103.71459961 33.54638672 C103.75745576 35.97697707 103.77347048 38.40648017 103.78369141 40.83740234 C103.80119949 41.57931824 103.81870758 42.32123413 103.83674622 43.08563232 C103.8140973 48.58639484 102.46842078 51.74168585 99.35791016 56.29052734 C95.4180277 59.94212572 92.43309696 61.407506 87.08927917 61.43769836 C86.21875412 61.44485367 85.34822906 61.45200897 84.45132446 61.4593811 C83.49905975 61.46207001 82.54679504 61.46475891 81.56567383 61.4675293 C80.56050217 61.47410049 79.55533051 61.48067169 78.5196991 61.48744202 C75.18842497 61.5071766 71.85719589 61.51883734 68.52587891 61.52880859 C67.38873255 61.53288412 66.25158619 61.53695965 65.07998085 61.54115868 C59.06251837 61.562019 53.04507871 61.57632153 47.02758789 61.58569336 C40.80990088 61.59676427 34.59257111 61.63117251 28.37501049 61.67086506 C23.59576243 61.69699677 18.81659998 61.7053821 14.03728676 61.70897484 C11.74515683 61.71384882 9.45303092 61.72548578 7.16097069 61.74401283 C3.95313472 61.76833271 0.74622981 61.76745211 -2.46166992 61.76049805 C-3.88095795 61.77971313 -3.88095795 61.77971313 -5.32891846 61.79931641 C-10.94805504 61.75492625 -14.19735905 61.0663624 -18.64208984 57.29052734 C-23.37292368 52.04825201 -23.81507469 47.96552707 -23.88037109 41.11474609 C-23.88844284 40.31196732 -23.89651459 39.50918854 -23.90483093 38.68208313 C-23.91865435 36.9833084 -23.92938429 35.2845061 -23.93725586 33.58569336 C-23.95445819 30.99783227 -23.99835677 28.41125276 -24.04248047 25.82373047 C-24.05260907 24.17074504 -24.06112465 22.51774879 -24.06787109 20.86474609 C-24.08537918 20.09579514 -24.10288727 19.32684418 -24.1209259 18.53459167 C-24.09559985 12.20965992 -21.79875783 8.87852893 -17.76708984 4.04052734 C-12.53419353 -0.26891668 -6.43502488 -0.00654176 0 0 Z " fill="#000000" transform="translate(288.64208984375,450.70947265625)"/>
<path d="M0 0 C0.95348328 -0.00671722 1.90696655 -0.01343445 2.88934326 -0.02035522 C6.0378543 -0.03933502 9.18615213 -0.04325952 12.3347168 -0.04541016 C14.52801094 -0.0518384 16.72130422 -0.05856679 18.91459656 -0.06558228 C23.51193225 -0.07755522 28.10919279 -0.08126311 32.70654297 -0.08007812 C38.58771268 -0.07987501 44.46839876 -0.10716971 50.34945393 -0.14162254 C54.88002216 -0.16389811 59.41047416 -0.16791545 63.94109154 -0.16685867 C66.10875298 -0.16921392 68.27641766 -0.17803309 70.44402504 -0.19352341 C73.48125347 -0.21319484 76.51744108 -0.20734025 79.5546875 -0.1953125 C80.44379318 -0.20655151 81.33289886 -0.21779053 82.24894714 -0.22937012 C88.71876296 -0.16450766 94.27261858 1.18272472 99.03401661 5.80864906 C103.26263011 10.75066202 103.64024253 14.06861248 103.67456055 20.36865234 C103.68026062 21.17284607 103.68596069 21.97703979 103.6918335 22.80560303 C103.70128856 24.51036258 103.70781948 26.21514045 103.71166992 27.91992188 C103.7213458 30.51644278 103.75235118 33.11216205 103.78393555 35.70849609 C103.79046874 37.36604348 103.79571797 39.02359653 103.79956055 40.68115234 C103.81190735 41.45324036 103.82425415 42.22532837 103.8369751 43.02081299 C103.81451074 48.51402706 102.8246115 52.76969508 98.9362793 56.93505859 C95.13831605 59.83938343 93.07412215 61.41230702 88.32305908 61.43096924 C87.0193335 61.43953445 87.0193335 61.43953445 85.68927002 61.44827271 C84.73341003 61.44939056 83.77755005 61.45050842 82.79272461 61.45166016 C81.78769897 61.45662506 80.78267334 61.46158997 79.74719238 61.46670532 C76.41047489 61.48135259 73.07380496 61.48813377 69.73706055 61.49365234 C67.42258706 61.49940237 65.10811359 61.50516012 62.79364014 61.51092529 C57.93460874 61.52144305 53.07559392 61.52728042 48.21655273 61.53076172 C41.99105527 61.53624334 35.76577686 61.5602612 29.54034805 61.58873367 C24.7568091 61.60736187 19.97332284 61.61256579 15.18975067 61.6140976 C12.89484206 61.61712501 10.5999344 61.62515651 8.30506134 61.63828278 C5.09244671 61.65534417 1.88036621 61.65346239 -1.33227539 61.64697266 C-2.28003845 61.65618744 -3.22780151 61.66540222 -4.20428467 61.67489624 C-10.12702949 61.63743195 -14.61196335 60.95080009 -19.1730957 56.79052734 C-23.24183578 51.56512202 -23.69536798 47.77027254 -23.73168945 41.33349609 C-23.73738953 40.55291336 -23.7430896 39.77233063 -23.7489624 38.96809387 C-23.75840395 37.31638948 -23.76494303 35.66466633 -23.76879883 34.01293945 C-23.77848863 31.49770848 -23.80951246 28.98330043 -23.84106445 26.46826172 C-23.84759659 24.86084468 -23.85284624 23.25342181 -23.85668945 21.64599609 C-23.86903625 20.89891891 -23.88138306 20.15184174 -23.894104 19.38212585 C-23.87386664 14.5902505 -23.07196616 11.35226053 -20.52856445 7.29052734 C-13.891098 0.94164639 -8.81649964 -0.00892674 0 0 Z " fill="#000000" transform="translate(143.528564453125,450.70947265625)"/>
<path d="M0 0 C3.26540811 0.13493422 4.68581493 0.71146269 7.10546875 2.93359375 C8.13607422 4.17302734 8.13607422 4.17302734 9.1875 5.4375 C12.37562622 9.15609648 15.62917681 12.69302746 19.125 16.125 C22.64581636 19.60248324 25.93947719 23.17385629 29.15234375 26.93359375 C32.10995564 30.24136688 35.29515558 33.3150543 38.47265625 36.41015625 C41 39 41 39 42.22436523 40.64697266 C46.6883002 46.5549063 52.33858487 49.13936609 58.9375 52.25 C60.64957642 53.08253296 60.64957642 53.08253296 62.39624023 53.93188477 C68.0806237 56.68708065 73.79564091 59.3772415 79.5078125 62.07421875 C80.52883057 62.55793945 81.54984863 63.04166016 82.60180664 63.54003906 C84.51365967 64.44244252 86.42928667 65.33691287 88.34936523 66.22167969 C101.34815176 72.30921956 111.38096086 79.64579397 117.04296875 93.2421875 C118.79907942 98.30265336 119.70709753 103.42978081 120.3125 108.7421875 C120.79418302 113.63636834 120.79418302 113.63636834 123.68359375 117.29296875 C125.81834724 118.26555878 125.81834724 118.26555878 129 119 C129.33 123.95 129.66 128.9 130 134 C99.97 134 69.94 134 39 134 C39 133.67 39 133.34 39 133 C48.24 133 57.48 133 67 133 C64.7548598 109.75619553 59.60461985 93.34382416 44.69921875 75.19921875 C43 73 43 73 43 71 C42.01 70.505 42.01 70.505 41 70 C41.515625 69.46375 42.03125 68.9275 42.5625 68.375 C44.22834312 66.07827919 44.22834312 66.07827919 44.02514648 63.30419922 C42.54913509 58.54679549 39.61619525 56.10564468 36.03515625 52.7578125 C34.57997483 51.34646066 33.12490035 49.93499855 31.66992188 48.5234375 C29.384165 46.33615223 27.09340826 44.15433168 24.79858398 41.9765625 C15.79184573 33.39328931 8.05621821 25.14593129 1.88061523 14.28857422 C0.14750702 11.08112441 0.14750702 11.08112441 -1.76928711 8.71533203 C-3 7 -3 7 -2.8125 4.375 C-2 2 -2 2 0 0 Z " fill="#F5C4A9" transform="translate(97,318)"/>
<path d="M0 0 C1.67542976 0.28604898 3.34385343 0.61781233 5 1 C6.04913471 4.9427303 5.87654195 7.55170217 4.8125 11.47265625 C4.52995361 12.52662598 4.24740723 13.5805957 3.95629883 14.66650391 C3.64072021 15.78718262 3.3251416 16.90786133 3 18.0625 C2.67604248 19.22700684 2.35208496 20.39151367 2.01831055 21.59130859 C-13.06806678 74.96261582 -38.84183591 102.02391432 -83.52197266 132.73339844 C-93.00040844 139.26042996 -101.83825786 145.83825786 -110 154 C-110.57957665 160.47656158 -110.57957665 160.47656158 -107 166 C-108.32 170.62 -109.64 175.24 -111 180 C-141.03 180 -171.06 180 -202 180 C-202 179.67 -202 179.34 -202 179 C-192.76 179 -183.52 179 -174 179 C-173.67 176.36 -173.34 173.72 -173 171 C-172.16796875 168.2421875 -172.16796875 168.2421875 -171.1875 165.875 C-170.87167969 165.08867187 -170.55585938 164.30234375 -170.23046875 163.4921875 C-167.45369276 157.86811423 -164.65389119 154.32412802 -159.3125 151 C-158.71783936 150.62955566 -158.12317871 150.25911133 -157.51049805 149.87744141 C-145.03491898 142.22928204 -132.07929127 135.34365547 -119.26171875 128.29296875 C-107.92763245 122.04710452 -96.66595066 115.71167887 -85.5625 109.0625 C-84.57507813 108.47218994 -83.58765625 107.88187988 -82.5703125 107.27368164 C-66.66276062 97.66736575 -51.06139606 87.17994165 -37 75 C-35.96101562 74.19691406 -34.92203125 73.39382813 -33.8515625 72.56640625 C-22.47383999 63.14719982 -18.24788809 49.77868853 -13.24560547 36.33447266 C-11.57355548 31.85841252 -9.79734338 27.42694464 -8 23 C-8.33 22.67 -8.66 22.34 -9 22 C-9.33 21.34 -9.66 20.68 -10 20 C-9.30322266 18.04467773 -9.30322266 18.04467773 -8.1640625 15.68359375 C-7.75929688 14.83732422 -7.35453125 13.99105469 -6.9375 13.11914062 C-6.504375 12.23419922 -6.07125 11.34925781 -5.625 10.4375 C-5.19960938 9.54869141 -4.77421875 8.65988281 -4.3359375 7.74414062 C-1.16364829 1.16364829 -1.16364829 1.16364829 0 0 Z " fill="#F6C5AA" transform="translate(487,272)"/>
<path d="M0 0 C3.15612858 2.66517524 6.28618015 5.32162669 9.28125 8.16796875 C22.19812209 20.38717028 37.33305308 30.02887396 52 40 C51.43151074 43.36404982 50.59414503 46.08482911 49.0625 49.125 C44.20836214 59.75114907 43.50913755 71.87287594 47 83 C50.218173 91.30845625 55.3824033 96.80077592 62.3125 102.25 C69.03905007 107.61653721 76.58890119 114.45496586 79 123 C79.46857989 128.98200042 78.59143177 133.12381749 76.1875 138.5625 C75.92646484 139.18318359 75.66542969 139.80386719 75.39648438 140.44335938 C74.61158828 142.3019158 73.80739364 144.1511221 73 146 C72.43267017 147.32121838 71.86622448 148.64281686 71.30078125 149.96484375 C70.87152344 150.96644531 70.44226563 151.96804688 70 153 C66.16915589 151.31293727 62.97628465 148.8592218 59.6875 146.3125 C59.10935547 145.86624268 58.53121094 145.41998535 57.93554688 144.96020508 C53.62760605 141.58932618 49.7397721 137.99220672 46 134 C45.20980469 133.20980469 44.41960937 132.41960937 43.60546875 131.60546875 C23.6242018 111.6242018 10.6188258 87.5673906 3.25 60.375 C3.05116211 59.64812988 2.85232422 58.92125977 2.64746094 58.17236328 C-0.47374905 46.0488984 -1.30996379 34.03602795 -1.20581055 21.58227539 C-1.18721157 19.27674608 -1.185304 16.97161318 -1.18554688 14.66601562 C-1.14825435 3.44476305 -1.14825435 3.44476305 0 0 Z " fill="#68E4EA" transform="translate(99,152)"/>
<path d="M0 0 C2.94239029 0.92260252 5.87784127 1.86561926 8.8125 2.8125 C10.06256836 3.20405273 10.06256836 3.20405273 11.33789062 3.60351562 C12.14033203 3.86455078 12.94277344 4.12558594 13.76953125 4.39453125 C14.50792236 4.63018799 15.24631348 4.86584473 16.00708008 5.10864258 C18.24894394 6.11134317 19.48056296 7.07555622 21 9 C21.77847129 15.00534995 20.02965606 19.13219706 17.4375 24.375 C17.04618896 25.18662598 16.65487793 25.99825195 16.25170898 26.83447266 C12.18743524 35.03066836 7.38986517 42.7655037 2.61035156 50.55761719 C-1.56330373 57.42504292 -5.37031084 64.36268627 -8.8125 71.625 C-9.21460693 72.4711084 -9.61671387 73.3172168 -10.03100586 74.18896484 C-13.42679292 81.54637938 -15.33223245 88.07486554 -15.1875 96.1875 C-15.18685547 96.88552734 -15.18621094 97.58355469 -15.18554688 98.30273438 C-15.15672257 101.66877323 -15.03932706 104.78224341 -14 108 C-32.97444786 120.50883977 -53.74038184 127.73636115 -76 132 C-76.8979126 132.17942139 -77.7958252 132.35884277 -78.72094727 132.54370117 C-82.64792345 133.09016223 -86.5061972 133.12463822 -90.4609375 133.09765625 C-91.25150543 133.0962413 -92.04207336 133.09482635 -92.8565979 133.09336853 C-95.36277166 133.08780504 -97.86885358 133.07525944 -100.375 133.0625 C-102.08202995 133.05748028 -103.78906132 133.0529182 -105.49609375 133.04882812 C-109.66409748 133.03784759 -113.83203321 133.02060839 -118 133 C-118 132.67 -118 132.34 -118 132 C-117.37738281 131.96003906 -116.75476563 131.92007813 -116.11328125 131.87890625 C-86.98804986 128.58860814 -56.70841552 105.64190417 -38.3125 83.625 C-36.85646199 81.7643591 -35.41961749 79.88857551 -34 78 C-33.60216309 77.47712402 -33.20432617 76.95424805 -32.79443359 76.41552734 C-15.94112377 54.143908 -3.99185126 27.80530881 0 0 Z " fill="#32D6DB" transform="translate(356,198)"/>
<path d="M0 0 C0.88315384 0.00202423 1.76630768 0.00404846 2.67622375 0.00613403 C3.60135269 0.00438171 4.52648163 0.00262939 5.47964478 0.00082397 C8.55365343 -0.00359611 11.62760508 -0.000656 14.70161438 0.00271606 C16.82771313 0.00204307 18.9538118 0.00107308 21.07991028 -0.00018311 C25.54219798 -0.00166029 30.00446571 0.00049514 34.4667511 0.00515747 C40.20057007 0.01085477 45.93434223 0.00757587 51.66815948 0.00158501 C56.06032161 -0.00202005 60.45247255 -0.00088228 64.84463501 0.0017128 C66.95945237 0.00238222 69.07427072 0.00155312 71.18908691 -0.00076675 C74.13925384 -0.00329237 77.08934384 0.00054603 80.039505 0.00613403 C80.92265884 0.0041098 81.80581268 0.00208557 82.71572876 0 C88.74360204 0.02126622 88.74360204 0.02126622 89.85786438 1.13552856 C89.9577997 3.19608167 89.98867344 5.26005446 89.99067688 7.32302856 C89.99196594 8.57857544 89.993255 9.83412231 89.99458313 11.12771606 C89.9924884 11.78481567 89.99039368 12.44191528 89.98823547 13.118927 C89.98288672 15.12714191 89.98818129 17.13513316 89.99458313 19.14334106 C89.99329407 20.39888794 89.992005 21.65443481 89.99067688 22.94802856 C89.98954895 24.10947388 89.98842102 25.27091919 89.98725891 26.46755981 C89.85786438 29.13552856 89.85786438 29.13552856 88.85786438 30.13552856 C85.91077023 30.23612626 82.98707297 30.27167906 80.039505 30.2649231 C78.6518116 30.26755157 78.6518116 30.26755157 77.23608398 30.27023315 C74.16207533 30.27465324 71.08812368 30.27171313 68.01411438 30.26834106 C65.88801563 30.26901406 63.76191696 30.26998405 61.63581848 30.27124023 C57.17353078 30.27271742 52.71126305 30.27056199 48.24897766 30.26589966 C42.51515869 30.26020236 36.78138652 30.26348126 31.04756927 30.26947212 C26.65540715 30.27307718 22.26325621 30.27193941 17.87109375 30.26934433 C15.75627639 30.26867491 13.64145804 30.26950401 11.52664185 30.27182388 C8.57647492 30.2743495 5.62638492 30.2705111 2.67622375 30.2649231 C1.351493 30.26795944 1.351493 30.26795944 0 30.27105713 C-6.02787328 30.2497909 -6.02787328 30.2497909 -7.14213562 29.13552856 C-7.24207094 27.07497546 -7.27294468 25.01100267 -7.27494812 22.94802856 C-7.27623718 21.69248169 -7.27752625 20.43693481 -7.27885437 19.14334106 C-7.27675964 18.48624146 -7.27466492 17.82914185 -7.27250671 17.15213013 C-7.26715796 15.14391522 -7.27245253 13.13592397 -7.27885437 11.12771606 C-7.27756531 9.87216919 -7.27627625 8.61662231 -7.27494812 7.32302856 C-7.27325623 5.5808606 -7.27325623 5.5808606 -7.27153015 3.80349731 C-7.02894394 -1.1983557 -4.37381512 0.01543074 0 0 Z " fill="#0C6D99" transform="translate(287.1421356201172,466.8644714355469)"/>
<path d="M0 0 C0.88315384 0.00202423 1.76630768 0.00404846 2.67622375 0.00613403 C3.60135269 0.00438171 4.52648163 0.00262939 5.47964478 0.00082397 C8.55365343 -0.00359611 11.62760508 -0.000656 14.70161438 0.00271606 C16.82771313 0.00204307 18.9538118 0.00107308 21.07991028 -0.00018311 C25.54219798 -0.00166029 30.00446571 0.00049514 34.4667511 0.00515747 C40.20057007 0.01085477 45.93434223 0.00757587 51.66815948 0.00158501 C56.06032161 -0.00202005 60.45247255 -0.00088228 64.84463501 0.0017128 C66.95945237 0.00238222 69.07427072 0.00155312 71.18908691 -0.00076675 C74.13925384 -0.00329237 77.08934384 0.00054603 80.039505 0.00613403 C80.92265884 0.0041098 81.80581268 0.00208557 82.71572876 0 C88.74360204 0.02126622 88.74360204 0.02126622 89.85786438 1.13552856 C89.9577997 3.19608167 89.98867344 5.26005446 89.99067688 7.32302856 C89.99196594 8.57857544 89.993255 9.83412231 89.99458313 11.12771606 C89.9924884 11.78481567 89.99039368 12.44191528 89.98823547 13.118927 C89.98288672 15.12714191 89.98818129 17.13513316 89.99458313 19.14334106 C89.99329407 20.39888794 89.992005 21.65443481 89.99067688 22.94802856 C89.98954895 24.10947388 89.98842102 25.27091919 89.98725891 26.46755981 C89.85786438 29.13552856 89.85786438 29.13552856 88.85786438 30.13552856 C85.91077023 30.23612626 82.98707297 30.27167906 80.039505 30.2649231 C78.6518116 30.26755157 78.6518116 30.26755157 77.23608398 30.27023315 C74.16207533 30.27465324 71.08812368 30.27171313 68.01411438 30.26834106 C65.88801563 30.26901406 63.76191696 30.26998405 61.63581848 30.27124023 C57.17353078 30.27271742 52.71126305 30.27056199 48.24897766 30.26589966 C42.51515869 30.26020236 36.78138652 30.26348126 31.04756927 30.26947212 C26.65540715 30.27307718 22.26325621 30.27193941 17.87109375 30.26934433 C15.75627639 30.26867491 13.64145804 30.26950401 11.52664185 30.27182388 C8.57647492 30.2743495 5.62638492 30.2705111 2.67622375 30.2649231 C1.351493 30.26795944 1.351493 30.26795944 0 30.27105713 C-6.02787328 30.2497909 -6.02787328 30.2497909 -7.14213562 29.13552856 C-7.24207094 27.07497546 -7.27294468 25.01100267 -7.27494812 22.94802856 C-7.27623718 21.69248169 -7.27752625 20.43693481 -7.27885437 19.14334106 C-7.27675964 18.48624146 -7.27466492 17.82914185 -7.27250671 17.15213013 C-7.26715796 15.14391522 -7.27245253 13.13592397 -7.27885437 11.12771606 C-7.27756531 9.87216919 -7.27627625 8.61662231 -7.27494812 7.32302856 C-7.27325623 5.5808606 -7.27325623 5.5808606 -7.27153015 3.80349731 C-7.02894394 -1.1983557 -4.37381512 0.01543074 0 0 Z " fill="#0C6D99" transform="translate(142.1421356201172,466.8644714355469)"/>
<path d="M0 0 C6.64359268 0.70967592 12.27592598 2.8885544 18.37890625 5.48828125 C21.80722935 6.99823811 21.80722935 6.99823811 24.71484375 7.79296875 C27.12101885 8.58052335 28.37474844 9.0438589 30 11 C30.64491642 14.49708201 30.75462063 17.84840761 30.828125 21.40234375 C31.31850182 31.66682209 37.3108233 38.65656993 44 46 C44.90363281 46.81597656 45.80726563 47.63195312 46.73828125 48.47265625 C49.36476809 51.40760787 49.64336321 52.75408468 49.75 56.625 C49.87040896 59.76423368 49.99933989 61.99801968 51 65 C51.58810113 68.46797779 51.75558535 71.55036204 51 75 C48.68363701 77.86884344 46.04775713 79.94548515 43 82 C41.27823028 79.41734542 39.85209353 76.82064247 38.43823242 74.06396484 C28.29470481 54.41041611 12.97705561 33.07630811 -6 21 C-7.98 21.99 -7.98 21.99 -10 23 C-9.731875 22.47148438 -9.46375 21.94296875 -9.1875 21.3984375 C-7.74898047 18.49300661 -6.36989689 15.56342883 -5 12.625 C-4.484375 11.52414063 -3.96875 10.42328125 -3.4375 9.2890625 C-2.1004123 6.2297477 -1.00016264 3.18320995 0 0 Z " fill="#33D6DB" transform="translate(300,22)"/>
<path d="M0 0 C0.66 0 1.32 0 2 0 C9.19768388 20.11368578 10.54114948 39.74531334 10 61 C5.89026431 58.75202409 2.23589147 56.67964224 -1.125 53.375 C-1.74632812 52.78460938 -2.36765625 52.19421875 -3.0078125 51.5859375 C-9.0703629 43.71650934 -10.79233297 36.77062393 -10.5625 26.9375 C-10.57893555 25.40125977 -10.57893555 25.40125977 -10.59570312 23.83398438 C-10.51942805 15.87595114 -9.04445431 8.83213441 -3.3125 3 C-2.549375 2.34 -1.78625 1.68 -1 1 C-0.67 0.67 -0.34 0.34 0 0 Z " fill="#8DCF42" transform="translate(348,121)"/>
<path d="M0 0 C12.8539779 -0.23105878 25.28663202 -0.03996736 38 2 C37.15178571 10.5 37.15178571 10.5 34.9375 14.5 C34.57527344 15.1703125 34.21304688 15.840625 33.83984375 16.53125 C33.56269531 17.0159375 33.28554688 17.500625 33 18 C32.505 17.01 32.505 17.01 32 16 C30.0051896 15.31796195 28.00385911 14.65497566 26 14 C23.39534304 12.78986866 20.85907513 11.45226122 18.3125 10.125 C12.02508103 6.90560862 5.73650889 4.16938422 -1 2 C-0.67 1.34 -0.34 0.68 0 0 Z " fill="#78B32D" transform="translate(247,15)"/>
<path d="M0 0 C0.99 0.33 1.98 0.66 3 1 C0.03839944 4.12613393 -2.09567131 6.04783565 -6 8 C-4.02 5.36 -2.04 2.72 0 0 Z " fill="#80D76F" transform="translate(138,55)"/>
<path d="M0 0 C0.33 0.99 0.66 1.98 1 3 C-1 6 -1 6 -4 7 C-3.39816251 4.97954558 -2.72693904 2.97888961 -2 1 C-1.34 0.67 -0.68 0.34 0 0 Z " fill="#E6C4B1" transform="translate(481,287)"/>
</svg>
